<svg width="88" height="28" viewBox="0 0 88 28" fill="none" xmlns="http://www.w3.org/2000/svg">
<path d="M10.7666 22H6.57715V5.19824H0.263672V0.994141H17.0654V5.19824H10.7666V22ZM22.6465 18.1621C22.8027 18.2109 22.959 18.2451 23.1152 18.2646C23.2715 18.2744 23.4277 18.2793 23.584 18.2793C23.9746 18.2793 24.3506 18.2256 24.7119 18.1182C25.0732 18.0107 25.4102 17.8594 25.7227 17.6641C26.0449 17.459 26.3281 17.2148 26.5723 16.9316C26.8262 16.6387 27.0312 16.3164 27.1875 15.9648L30.1172 18.9092C29.7461 19.4365 29.3164 19.9102 28.8281 20.3301C28.3496 20.75 27.8271 21.1064 27.2607 21.3994C26.7041 21.6924 26.1133 21.9121 25.4883 22.0586C24.873 22.2148 24.2383 22.293 23.584 22.293C22.4805 22.293 21.4404 22.0879 20.4639 21.6777C19.4971 21.2676 18.6475 20.6963 17.915 19.9639C17.1924 19.2314 16.6211 18.3623 16.2012 17.3564C15.7812 16.3408 15.5713 15.2275 15.5713 14.0166C15.5713 12.7764 15.7812 11.6436 16.2012 10.6182C16.6211 9.59277 17.1924 8.71875 17.915 7.99609C18.6475 7.27344 19.4971 6.71191 20.4639 6.31152C21.4404 5.91113 22.4805 5.71094 23.584 5.71094C24.2383 5.71094 24.8779 5.78906 25.5029 5.94531C26.1279 6.10156 26.7188 6.32617 27.2754 6.61914C27.8418 6.91211 28.3691 7.27344 28.8574 7.70312C29.3457 8.12305 29.7754 8.59668 30.1465 9.12402L22.6465 18.1621ZM24.6973 9.91504C24.5117 9.84668 24.3262 9.80273 24.1406 9.7832C23.9648 9.76367 23.7793 9.75391 23.584 9.75391C23.0371 9.75391 22.5195 9.85645 22.0312 10.0615C21.5527 10.2568 21.1328 10.54 20.7715 10.9111C20.4199 11.2822 20.1416 11.7314 19.9365 12.2588C19.7314 12.7764 19.6289 13.3623 19.6289 14.0166C19.6289 14.1631 19.6338 14.3291 19.6436 14.5146C19.6631 14.7002 19.6875 14.8906 19.7168 15.0859C19.7559 15.2715 19.7998 15.4521 19.8486 15.6279C19.8975 15.8037 19.9609 15.96 20.0391 16.0967L24.6973 9.91504ZM36.1963 22H32.168V0.0712891H36.1963V22ZM45.498 18.1621C45.6543 18.2109 45.8105 18.2451 45.9668 18.2646C46.123 18.2744 46.2793 18.2793 46.4355 18.2793C46.8262 18.2793 47.2021 18.2256 47.5635 18.1182C47.9248 18.0107 48.2617 17.8594 48.5742 17.6641C48.8965 17.459 49.1797 17.2148 49.4238 16.9316C49.6777 16.6387 49.8828 16.3164 50.0391 15.9648L52.9688 18.9092C52.5977 19.4365 52.168 19.9102 51.6797 20.3301C51.2012 20.75 50.6787 21.1064 50.1123 21.3994C49.5557 21.6924 48.9648 21.9121 48.3398 22.0586C47.7246 22.2148 47.0898 22.293 46.4355 22.293C45.332 22.293 44.292 22.0879 43.3154 21.6777C42.3486 21.2676 41.499 20.6963 40.7666 19.9639C40.0439 19.2314 39.4727 18.3623 39.0527 17.3564C38.6328 16.3408 38.4229 15.2275 38.4229 14.0166C38.4229 12.7764 38.6328 11.6436 39.0527 10.6182C39.4727 9.59277 40.0439 8.71875 40.7666 7.99609C41.499 7.27344 42.3486 6.71191 43.3154 6.31152C44.292 5.91113 45.332 5.71094 46.4355 5.71094C47.0898 5.71094 47.7295 5.78906 48.3545 5.94531C48.9795 6.10156 49.5703 6.32617 50.127 6.61914C50.6934 6.91211 51.2207 7.27344 51.709 7.70312C52.1973 8.12305 52.627 8.59668 52.998 9.12402L45.498 18.1621ZM47.5488 9.91504C47.3633 9.84668 47.1777 9.80273 46.9922 9.7832C46.8164 9.76367 46.6309 9.75391 46.4355 9.75391C45.8887 9.75391 45.3711 9.85645 44.8828 10.0615C44.4043 10.2568 43.9844 10.54 43.623 10.9111C43.2715 11.2822 42.9932 11.7314 42.7881 12.2588C42.583 12.7764 42.4805 13.3623 42.4805 14.0166C42.4805 14.1631 42.4854 14.3291 42.4951 14.5146C42.5146 14.7002 42.5391 14.8906 42.5684 15.0859C42.6074 15.2715 42.6514 15.4521 42.7002 15.6279C42.749 15.8037 42.8125 15.96 42.8906 16.0967L47.5488 9.91504ZM59.0479 27.9766H55.0195V6.31152H55.9863L57.583 8.20117C57.9443 7.85938 58.3398 7.53711 58.7695 7.23438C59.1992 6.93164 59.6436 6.67285 60.1025 6.45801C60.5713 6.2334 61.0547 6.05762 61.5527 5.93066C62.0508 5.80371 62.5537 5.74023 63.0615 5.74023C64.165 5.74023 65.2002 5.94043 66.167 6.34082C67.1436 6.73145 67.9932 7.28809 68.7158 8.01074C69.4482 8.7334 70.0244 9.60742 70.4443 10.6328C70.8643 11.6484 71.0742 12.7764 71.0742 14.0166C71.0742 15.3057 70.8643 16.4678 70.4443 17.5029C70.0244 18.5283 69.4482 19.4023 68.7158 20.125C67.9932 20.8379 67.1436 21.3848 66.167 21.7656C65.2002 22.1465 64.165 22.3369 63.0615 22.3369C62.71 22.3369 62.3584 22.2979 62.0068 22.2197C61.665 22.1416 61.3232 22.0391 60.9814 21.9121C60.6494 21.7754 60.3174 21.624 59.9854 21.458C59.6631 21.292 59.3506 21.1211 59.0479 20.9453V27.9766ZM67.0605 14.0166C67.0605 13.3525 66.9531 12.7568 66.7383 12.2295C66.5332 11.7021 66.25 11.2578 65.8887 10.8965C65.5273 10.5254 65.1025 10.2422 64.6143 10.0469C64.126 9.85156 63.6084 9.75391 63.0615 9.75391C62.5146 9.75391 61.9971 9.85156 61.5088 10.0469C61.0303 10.2422 60.6104 10.5254 60.249 10.8965C59.8877 11.2578 59.5996 11.7021 59.3848 12.2295C59.1797 12.7568 59.0771 13.3525 59.0771 14.0166C59.0771 14.6514 59.1797 15.2324 59.3848 15.7598C59.5996 16.2871 59.8877 16.7363 60.249 17.1074C60.6104 17.4785 61.0303 17.7666 61.5088 17.9717C61.9971 18.1768 62.5146 18.2793 63.0615 18.2793C63.6084 18.2793 64.126 18.1768 64.6143 17.9717C65.1025 17.7666 65.5273 17.4785 65.8887 17.1074C66.25 16.7363 66.5332 16.2871 66.7383 15.7598C66.9531 15.2324 67.0605 14.6514 67.0605 14.0166ZM84.8291 20.1689C84.5068 20.4619 84.1602 20.7402 83.7891 21.0039C83.4277 21.2578 83.0469 21.4824 82.6465 21.6777C82.2461 21.8633 81.8311 22.0098 81.4014 22.1172C80.9814 22.2344 80.5518 22.293 80.1123 22.293C79.1455 22.293 78.2373 22.1221 77.3877 21.7803C76.5381 21.4385 75.791 20.9551 75.1465 20.3301C74.5117 19.6953 74.0088 18.9287 73.6377 18.0303C73.2764 17.1221 73.0957 16.1064 73.0957 14.9834V6.31152H77.0801V14.9834C77.0801 15.5107 77.1582 15.9844 77.3145 16.4043C77.4805 16.8145 77.7002 17.1611 77.9736 17.4443C78.2471 17.7275 78.5645 17.9424 78.9258 18.0889C79.2969 18.2354 79.6924 18.3086 80.1123 18.3086C80.5225 18.3086 80.9082 18.2158 81.2695 18.0303C81.6406 17.835 81.9629 17.5811 82.2363 17.2686C82.5098 16.9561 82.7246 16.6045 82.8809 16.2139C83.0371 15.8135 83.1152 15.4033 83.1152 14.9834V6.31152H87.1143V22H86.1475L84.8291 20.1689Z" fill="#FFFEFE"/>
</svg>
